# xmcd
#
# Track frame offsets:
#	150
#	14084
#	28080
#	46850
#	65529
#	82382
#	97650
#	109206
#	123470
#	144895
#	155315
#	172665
#
# Disc length: 2486 seconds
# Revision: 0
# Processed by: cddbd v1.5.2PL0 Copyright (c) Steve Scherf et al.
# Submitted via: dBpowerAMP V12.0
#
DISCID=9509b40c
DTITLE=Volume Five - For Those Who Care To Listen
DYEAR=2019
DGENRE=Bluegrass
TTITLE0=All The Way To The Bottom
TTITLE1=Today's The Day I Get My Gold Watch And Chain
TTITLE2=Song For Jack
TTITLE3=Lonliness And Time
TTITLE4=You Can't Stop A Fool From Holding On
TTITLE5=Use Me Lord
TTITLE6=The Army Vet Song
TTITLE7=Somewhere
TTITLE8=North Carolina Moon
TTITLE9=The Story Of Simon Lowe
TTITLE10=15th Of October
TTITLE11=Wings Of A Song
EXTD=
EXTT0=
EXTT1=
EXTT2=
EXTT3=
EXTT4=
EXTT5=
EXTT6=
EXTT7=
EXTT8=
EXTT9=
EXTT10=
EXTT11=
PLAYORDER=
